<?xml version="1.0" standalone="no"?>
<!DOCTYPE svg PUBLIC "-//W3C//DTD SVG 20010904//EN"
 "http://www.w3.org/TR/2001/REC-SVG-20010904/DTD/svg10.dtd">
<svg version="1.0" xmlns="http://www.w3.org/2000/svg"
 width="32.000000pt" height="32.000000pt" viewBox="0 0 32.000000 32.000000"
 preserveAspectRatio="xMidYMid meet">

<g transform="translate(0.000000,32.000000) scale(0.100000,-0.100000)"
fill="#000000" stroke="none">
<path d="M129 266 c-19 -44 -37 -56 -91 -56 -44 0 -45 -21 -4 -56 37 -32 38
-33 31 -88 -8 -65 -3 -68 57 -34 l40 23 38 -23 c59 -33 63 -30 55 34 -7 55 -6
56 31 88 41 35 40 56 -4 56 -54 0 -72 12 -91 56 -11 24 -25 44 -31 44 -6 0
-20 -20 -31 -44z m52 -25 c15 -36 21 -40 64 -47 l47 -7 -35 -32 c-34 -31 -35
-35 -26 -70 6 -20 8 -39 5 -42 -3 -3 -21 4 -40 16 l-35 22 -40 -26 c-44 -27
-48 -23 -31 33 8 31 6 36 -27 67 l-35 32 47 7 c43 7 49 11 64 47 9 21 18 39
21 39 3 0 12 -18 21 -39z"/>
</g>
</svg>
